# xmcd CD database file
#
# Track frame offsets:
#	150
#	600
#	13504
#	28264
#	41824
#	58312
#	71824
#	89336
#	108832
#	122584
#	137424
#	153928
#	171184
#	183800
#	200112
#	219688
#	237808
#	255592
#	268384
#	282312
#
# Disc length: 3959 seconds
#
# Revision: 0
# Processed by: cddbd v1.5.2PL0 Copyright (c) Steve Scherf et al.
# Submitted via: CDex 1.51
#
DISCID=240f7514
DTITLE=EXTENDED MIXES - EXTENDED MIXES
DYEAR=2010
DGENRE=Country
TTITLE0=Life's A Dance John Michael Montgomery
TTITLE1=Only On Days That End in Y Clay Walker
TTITLE2=I Feel Lucky Mary Chapin Carpenter
TTITLE3=Cadillac Style Sammy Kershaw
TTITLE4=Big Love Tracy Byrd
TTITLE5=Slide Off Your Satin Sheets Johnny Paycheck
TTITLE6=Baby LIkes To Rock It The Tractors
TTITLE7=Neon Moon Brooks and Dunn
TTITLE8=Big Guitar Blackhawk
TTITLE9=Some Girls Do Sawyer Brown
TTITLE10=Adalida George Strait
TTITLE11=Walk Softly on this Heart of Mine Kentucky Headhunters
TTITLE12=Should Have Asked Her Faster Ty England
TTITLE13=T L C A S A P Alabama
TTITLE14=Hang In There Superman Hal Ketchum
TTITLE15=What Kind Of Love Rodney Crowell
TTITLE16=Another You David Kersh
TTITLE17=Super Love Exile
TTITLE18=Anyway The Wind Blows Brother Phelps
TTITLE19=Trashy Women Confederate Railroad DANCE MIX
EXTD=YEAR: 2010
EXTT0=
EXTT1=
EXTT2=
EXTT3=
EXTT4=
EXTT5=
EXTT6=
EXTT7=
EXTT8=
EXTT9=
EXTT10=
EXTT11=
EXTT12=
EXTT13=
EXTT14=
EXTT15=
EXTT16=
EXTT17=
EXTT18=
EXTT19=
PLAYORDER=
